#N canvas 0 23 450 300 10;
#X obj 297 166 osc~ 200;
#X obj 297 217 dac~;
#X obj 299 197 *~;
#X obj 395 182 r test;
#X obj 374 232 tgl 15 0 empty empty empty 17 7 0 10 -262144 -1 -1 0
1;
#X connect 0 0 2 0;
#X connect 2 0 1 0;
#X connect 3 0 4 0;
#X connect 4 0 2 1;
