#N canvas 243 215 1280 755 12;
#X obj 884 659 dac~;
#X msg -78 80 700 1000 1.12 2.1 84 70 94;
#X msg 145 85 500 2000 1.12 2.1 84 70 94;
#X msg 365 72 1000 2000 3.12 2.1 84 70 94;
#X msg 415 114 100 3000 2.12 2.1 84 70 200;
#X msg 425 162 100 3000 2.2 2.1 100 70 90;
#X msg 635 85 100 3000 2.2 4.1 100 70 50;
#X obj 1027 100 + 20;
#X obj 1140 79 random 3000;
#X obj 1027 77 random 3000;
#X obj 1140 102 + 100;
#X obj 1255 78 random 250;
#X obj 1255 101 + 10;
#X obj 1355 103 + 10;
#X obj 1355 80 random 500;
#X obj 1355 126 / 100;
#X obj 1255 124 / 100;
#X obj 1461 79 random 150;
#X obj 1461 102 + 10;
#X obj 1547 78 random 150;
#X obj 1547 101 + 10;
#X obj 1634 77 random 150;
#X obj 1634 100 + 10;
#X obj 1134 1 bng 15 250 50 0 empty empty empty 17 7 0 10 -262144 -1
-1;
#X obj 1134 24 t b b b b b b b;
#X obj 832 146 f;
#X obj 832 169 + 1;
#X obj 865 46 t b b;
#X obj 859 26 bng 15 250 50 0 empty empty empty 17 7 0 10 -262144 -1
-1;
#X obj 863 234 pack f f f f f f f f;
#X obj 682 25 bng 15 250 50 0 empty empty empty 17 7 0 10 -262144 -1
-1;
#X obj 682 48 t b b;
#X obj 575 22 bng 15 250 50 0 empty empty empty 17 7 0 10 -262144 -1
-1;
#X obj 575 45 t b b;
#X obj 492 18 bng 15 250 50 0 empty empty empty 17 7 0 10 -262144 -1
-1;
#X obj 492 41 t b b;
#X obj 385 15 bng 15 250 50 0 empty empty empty 17 7 0 10 -262144 -1
-1;
#X obj 385 38 t b b;
#X obj 305 13 bng 15 250 50 0 empty empty empty 17 7 0 10 -262144 -1
-1;
#X obj 305 36 t b b;
#X obj 104 9 bng 15 250 50 0 empty empty empty 17 7 0 10 -262144 -1
-1;
#X obj 104 32 t b b;
#X obj 832 192 mod 10;
#X obj 864 310 clone bellSound~ 10;
#X obj 852 425 dac~;
#X obj 516 203 unpack f f f f f f f;
#X obj 480 -79 r Bell;
#X obj 480 -56 sel 0 1 2 3 4 5 6;
#X obj 864 334 *~ 0.2;
#X connect 1 0 45 0;
#X connect 2 0 45 0;
#X connect 3 0 45 0;
#X connect 4 0 45 0;
#X connect 5 0 45 0;
#X connect 6 0 45 0;
#X connect 7 0 29 1;
#X connect 8 0 10 0;
#X connect 9 0 7 0;
#X connect 10 0 29 2;
#X connect 11 0 12 0;
#X connect 12 0 16 0;
#X connect 13 0 15 0;
#X connect 14 0 13 0;
#X connect 15 0 29 4;
#X connect 16 0 29 3;
#X connect 17 0 18 0;
#X connect 18 0 29 5;
#X connect 19 0 20 0;
#X connect 20 0 29 6;
#X connect 21 0 22 0;
#X connect 22 0 29 7;
#X connect 23 0 24 0;
#X connect 24 0 9 0;
#X connect 24 1 8 0;
#X connect 24 2 11 0;
#X connect 24 3 14 0;
#X connect 24 4 17 0;
#X connect 24 5 19 0;
#X connect 24 6 21 0;
#X connect 25 0 26 0;
#X connect 26 0 42 0;
#X connect 27 0 25 0;
#X connect 27 1 24 0;
#X connect 28 0 27 0;
#X connect 29 0 43 0;
#X connect 30 0 31 0;
#X connect 31 0 25 0;
#X connect 31 1 6 0;
#X connect 32 0 33 0;
#X connect 33 0 25 0;
#X connect 33 1 5 0;
#X connect 34 0 35 0;
#X connect 35 0 25 0;
#X connect 35 1 4 0;
#X connect 36 0 37 0;
#X connect 37 0 25 0;
#X connect 37 1 3 0;
#X connect 38 0 39 0;
#X connect 39 0 25 0;
#X connect 39 1 2 0;
#X connect 40 0 41 0;
#X connect 41 0 25 0;
#X connect 41 1 1 0;
#X connect 42 0 25 1;
#X connect 42 0 29 0;
#X connect 43 0 48 0;
#X connect 45 0 29 1;
#X connect 45 1 29 2;
#X connect 45 2 29 3;
#X connect 45 3 29 4;
#X connect 45 4 29 5;
#X connect 45 5 29 6;
#X connect 45 6 29 7;
#X connect 46 0 47 0;
#X connect 47 0 41 0;
#X connect 47 1 39 0;
#X connect 47 2 37 0;
#X connect 47 3 35 0;
#X connect 47 4 33 0;
#X connect 47 5 31 0;
#X connect 47 6 27 0;
#X connect 48 0 44 1;
#X connect 48 0 44 0;
