#N canvas 136 228 876 452 12;
#X obj 904 458 vline~;
#X obj 904 481 *~;
#X obj 890 598 *~;
#X obj 1118 498 osc~;
#X obj 1118 533 *~;
#X obj 1066 496 osc~;
#X obj 1185 465 / 100;
#X obj 1066 519 *~;
#X obj 1011 492 osc~;
#X obj 1006 536 *~;
#X floatatom 1049 362 5 0 0 0 - - -;
#X obj 1248 472 / 100;
#X obj 1293 471 / 100;
#X msg 904 435 1 1 0 \, 0 \$1 1;
#X obj 1028 316 unpack f f f f f f f;
#X obj 1068 452 *;
#X obj 1127 462 *;
#X obj 1003 565 *~ 0.333;
#X obj 1079 569 *~ 0.333;
#X obj 1163 570 *~ 0.333;
#X obj 994 250 inlet;
#X obj 890 628 outlet~;
#X obj 744 356 switch~;
#X obj 857 372 del;
#X obj 900 362 + 1;
#X msg 839 419 0;
#X msg 820 297 1;
#X obj 887 314 t f b b;
#X connect 0 0 1 0;
#X connect 0 0 1 1;
#X connect 1 0 2 0;
#X connect 2 0 21 0;
#X connect 3 0 4 0;
#X connect 4 0 19 0;
#X connect 5 0 7 0;
#X connect 6 0 4 1;
#X connect 7 0 18 0;
#X connect 8 0 9 0;
#X connect 9 0 17 0;
#X connect 10 0 8 0;
#X connect 10 0 15 0;
#X connect 10 0 16 0;
#X connect 11 0 7 1;
#X connect 12 0 9 1;
#X connect 13 0 0 0;
#X connect 14 0 10 0;
#X connect 14 1 27 0;
#X connect 14 2 15 1;
#X connect 14 3 16 1;
#X connect 14 4 6 0;
#X connect 14 5 11 0;
#X connect 14 6 12 0;
#X connect 15 0 5 0;
#X connect 16 0 3 0;
#X connect 17 0 2 1;
#X connect 18 0 2 1;
#X connect 19 0 2 1;
#X connect 20 0 14 0;
#X connect 23 0 25 0;
#X connect 24 0 23 1;
#X connect 25 0 22 0;
#X connect 26 0 22 0;
#X connect 27 0 13 0;
#X connect 27 1 24 0;
#X connect 27 2 26 0;
