#N canvas 337 80 1001 648 12;
#X obj 431 440 adsr~, f 14;
#X obj 371 536 *~;
#X obj 446 -39 bng 15 250 50 0 empty empty empty 17 7 0 10 -262144
-1 -1;
#X obj 680 144 t b b;
#X obj 205 92 t b b b;
#X obj 168 242 pack;
#X msg 351 326 1;
#X msg 392 352 0;
#X obj 450 372 random 10;
#X obj 450 395 + 5;
#X obj 537 373 random 10;
#X obj 652 370 random 50;
#X obj 652 393 + 50;
#X obj 743 398 + 30;
#X obj 743 375 random 70;
#X obj 507 327 t b b b b;
#X obj 401 11 t b b b b b b;
#X msg 659 206 1;
#X msg 757 227 0;
#X obj 433 253 loadbang;
#X msg 433 276 1;
#X obj 368 564 *~ 0.1;
#X obj 679 116 del;
#X obj 356 602 hip~ 5;
#X obj 549 405 + 3;
#X obj 238 203 -;
#X obj 237 231 -;
#X obj 236 260 -;
#X obj 679 169 del 100;
#X obj 727 139 +;
#X obj 819 -33 inlet;
#X obj 364 627 outlet~;
#X obj 54 138 random 100;
#X obj 54 163 + 200;
#X obj 145 141 random 400;
#X obj 145 164 + 400;
#X obj 238 140 random 100;
#X obj 238 164 + 200;
#X obj 140 310 line;
#N canvas 0 23 494 444 phasor 0;
#X obj 169 93 inlet;
#X obj 228 149 phasor~;
#X obj 228 172 *~ 2;
#X obj 228 195 -~ 1;
#X obj 228 218 outlet~;
#X obj 395 92 inlet;
#X obj 395 115 switch~;
#X connect 0 0 1 0;
#X connect 1 0 2 0;
#X connect 2 0 3 0;
#X connect 3 0 4 0;
#X connect 5 0 6 0;
#X restore 169 473 pd phasor;
#N canvas 0 23 450 300 osc 0;
#X obj 324 110 inlet;
#X obj 212 115 inlet;
#X obj 237 199 osc~;
#X obj 237 222 outlet~;
#X obj 324 143 switch~;
#X connect 0 0 4 0;
#X connect 1 0 2 0;
#X connect 2 0 3 0;
#X restore 40 524 pd osc;
#X msg 580 -52 0;
#X msg 646 -54 1;
#X obj 785 131 pack;
#X obj 826 96 t b f;
#N canvas 0 23 450 300 tri 0;
#X obj 218 124 inlet;
#X obj 358 132 inlet;
#X obj 277 200 osc~;
#X obj 277 223 *~ 1e+07;
#X obj 358 155 switch~;
#X obj 277 278 outlet~;
#X obj 279 250 clip~ -1 1;
#X connect 0 0 2 0;
#X connect 1 0 4 0;
#X connect 2 0 3 0;
#X connect 3 0 6 0;
#X connect 6 0 5 0;
#X restore 151 419 pd tri;
#X msg 727 -43 2;
#X text 881 133 switch;
#X text 603 327 ADSR;
#X text 92 451 synth;
#X text 96 246 line;
#X msg 63 50 100 200 400 400 100 200;
#X obj 59 92 unpack f f f f f f;
#X obj 585 -10 t b f f;
#X obj 117 -36 sel 0 1 2 3 4 5;
#X obj 314 479 *~ 0.3;
#X obj 170 503 *~ 0.5;
#X msg 185 18 600 400 200 100 200 170;
#X obj 788 158 route 0 1 2 3 4 5;
#X connect 0 0 1 1;
#X connect 1 0 21 0;
#X connect 2 0 16 0;
#X connect 3 0 28 0;
#X connect 3 1 7 0;
#X connect 4 0 34 0;
#X connect 4 1 36 0;
#X connect 4 2 32 0;
#X connect 5 0 38 0;
#X connect 6 0 0 0;
#X connect 7 0 0 0;
#X connect 8 0 9 0;
#X connect 9 0 0 2;
#X connect 9 0 25 1;
#X connect 10 0 24 0;
#X connect 11 0 12 0;
#X connect 12 0 0 4;
#X connect 13 0 0 5;
#X connect 13 0 27 1;
#X connect 13 0 29 1;
#X connect 14 0 13 0;
#X connect 15 0 14 0;
#X connect 15 1 11 0;
#X connect 15 2 10 0;
#X connect 15 3 8 0;
#X connect 16 0 6 0;
#X connect 16 1 22 0;
#X connect 16 3 4 0;
#X connect 16 4 15 0;
#X connect 16 5 17 0;
#X connect 17 0 44 0;
#X connect 18 0 44 0;
#X connect 19 0 20 0;
#X connect 20 0 0 1;
#X connect 21 0 23 0;
#X connect 22 0 3 0;
#X connect 23 0 31 0;
#X connect 24 0 0 3;
#X connect 24 0 26 1;
#X connect 25 0 26 0;
#X connect 26 0 27 0;
#X connect 27 0 22 1;
#X connect 28 0 18 0;
#X connect 29 0 28 1;
#X connect 30 0 53 0;
#X connect 32 0 33 0;
#X connect 33 0 38 0;
#X connect 34 0 35 0;
#X connect 35 0 5 0;
#X connect 36 0 37 0;
#X connect 37 0 5 1;
#X connect 37 0 25 0;
#X connect 37 0 29 0;
#X connect 38 0 39 0;
#X connect 38 0 40 0;
#X connect 38 0 45 0;
#X connect 39 0 56 0;
#X connect 40 0 1 0;
#X connect 41 0 53 0;
#X connect 42 0 53 0;
#X connect 43 0 58 0;
#X connect 44 0 43 0;
#X connect 44 1 43 1;
#X connect 45 0 55 0;
#X connect 46 0 53 0;
#X connect 51 0 52 0;
#X connect 52 0 32 1;
#X connect 52 1 33 1;
#X connect 52 2 34 1;
#X connect 52 3 35 1;
#X connect 52 4 36 1;
#X connect 52 5 37 1;
#X connect 53 0 16 0;
#X connect 53 1 43 0;
#X connect 53 2 54 0;
#X connect 54 0 51 0;
#X connect 54 1 51 0;
#X connect 54 2 51 0;
#X connect 54 3 57 0;
#X connect 54 4 57 0;
#X connect 54 5 57 0;
#X connect 55 0 1 0;
#X connect 56 0 1 0;
#X connect 57 0 52 0;
#X connect 58 0 39 1;
#X connect 58 1 40 1;
#X connect 58 2 45 1;
#X connect 58 3 39 1;
#X connect 58 4 40 1;
#X connect 58 5 45 1;
