#N canvas 42 126 1047 589 12;
#N canvas 226 242 611 379 sinJump 0;
#X obj 143 41 bng 15 250 50 0 empty empty empty 17 7 0 10 -262144 -1
-1;
#X obj 133 69 f;
#X obj 192 72 + 1;
#X obj 133 92 mod 10;
#X obj 138 121 sel 0 1 2 3 4 5 6 7 8 9;
#X obj -59 175 sinJump;
#X obj 16 175 sinJump;
#X obj 90 175 sinJump;
#X obj 165 175 sinJump;
#X obj 239 176 sinJump;
#X obj 314 176 sinJump;
#X obj 394 177 sinJump;
#X obj 469 177 sinJump;
#X obj 543 178 sinJump;
#X obj 618 178 sinJump;
#X obj 296 247 outlet~;
#X obj 224 32 r sinJump;
#X obj 103 22 inlet;
#X connect 0 0 1 0;
#X connect 1 0 3 0;
#X connect 2 0 1 1;
#X connect 3 0 2 0;
#X connect 3 0 4 0;
#X connect 4 0 5 0;
#X connect 4 1 6 0;
#X connect 4 2 7 0;
#X connect 4 3 8 0;
#X connect 4 4 9 0;
#X connect 4 5 10 0;
#X connect 4 6 11 0;
#X connect 4 7 12 0;
#X connect 4 8 13 0;
#X connect 4 9 14 0;
#X connect 5 0 15 0;
#X connect 6 0 15 0;
#X connect 7 0 15 0;
#X connect 8 0 15 0;
#X connect 9 0 15 0;
#X connect 10 0 15 0;
#X connect 11 0 15 0;
#X connect 12 0 15 0;
#X connect 13 0 15 0;
#X connect 14 0 15 0;
#X connect 16 0 1 0;
#X connect 17 0 1 0;
#X restore 24 364 pd sinJump;
#X obj 21 322 bng 15 250 50 0 empty empty empty 17 7 0 10 -262144 -1
-1;
#X obj 456 434 dac~;
#X obj 119 421 env~;
#X floatatom 119 444 5 0 0 0 - - -;
#X obj 271 311 bng 15 250 50 0 empty empty empty 17 7 0 10 -262144
-1 -1;
#N canvas 226 242 611 379 sawJump 0;
#X obj 143 41 bng 15 250 50 0 empty empty empty 17 7 0 10 -262144 -1
-1;
#X obj 133 69 f;
#X obj 192 72 + 1;
#X obj 133 92 mod 10;
#X obj 138 121 sel 0 1 2 3 4 5 6 7 8 9;
#X obj 296 247 outlet~;
#X obj 103 22 inlet;
#X obj 224 33 r sawJump;
#X obj 16 175 sawJump;
#X obj 90 175 sawJump;
#X obj -59 175 sawJump;
#X obj 165 175 sawJump;
#X obj 239 176 sawJump;
#X obj 314 177 sawJump;
#X obj 394 177 sawJump;
#X obj 469 177 sawJump;
#X obj 543 179 sawJump;
#X obj 618 178 sawJump;
#X connect 0 0 1 0;
#X connect 1 0 3 0;
#X connect 2 0 1 1;
#X connect 3 0 2 0;
#X connect 3 0 4 0;
#X connect 4 0 10 0;
#X connect 4 1 8 0;
#X connect 4 2 9 0;
#X connect 4 3 11 0;
#X connect 4 4 12 0;
#X connect 4 5 13 0;
#X connect 4 6 14 0;
#X connect 4 7 15 0;
#X connect 4 8 16 0;
#X connect 4 9 17 0;
#X connect 6 0 1 0;
#X connect 7 0 1 0;
#X connect 8 0 5 0;
#X connect 9 0 5 0;
#X connect 10 0 5 0;
#X connect 11 0 5 0;
#X connect 12 0 5 0;
#X connect 13 0 5 0;
#X connect 14 0 5 0;
#X connect 15 0 5 0;
#X connect 16 0 5 0;
#X connect 17 0 5 0;
#X restore 274 353 pd sawJump;
#N canvas 226 242 611 379 sawJump 0;
#X obj 143 41 bng 15 250 50 0 empty empty empty 17 7 0 10 -262144 -1
-1;
#X obj 133 69 f;
#X obj 192 72 + 1;
#X obj 133 92 mod 10;
#X obj 138 121 sel 0 1 2 3 4 5 6 7 8 9;
#X obj 296 247 outlet~;
#X obj 103 22 inlet;
#X obj 224 33 r triJump;
#X obj 16 175 triJump;
#X obj -59 175 triJump;
#X obj 90 175 triJump;
#X obj 165 175 triJump;
#X obj 239 176 triJump;
#X obj 314 177 triJump;
#X obj 394 177 triJump;
#X obj 469 177 triJump;
#X obj 543 179 triJump;
#X obj 618 179 triJump;
#X connect 0 0 1 0;
#X connect 1 0 3 0;
#X connect 2 0 1 1;
#X connect 3 0 2 0;
#X connect 3 0 4 0;
#X connect 4 0 9 0;
#X connect 4 1 8 0;
#X connect 4 2 10 0;
#X connect 4 3 11 0;
#X connect 4 4 12 0;
#X connect 4 5 13 0;
#X connect 4 6 14 0;
#X connect 4 7 15 0;
#X connect 4 8 16 0;
#X connect 4 9 17 0;
#X connect 6 0 1 0;
#X connect 7 0 1 0;
#X connect 8 0 5 0;
#X connect 9 0 5 0;
#X connect 10 0 5 0;
#X connect 11 0 5 0;
#X connect 12 0 5 0;
#X connect 13 0 5 0;
#X connect 14 0 5 0;
#X connect 15 0 5 0;
#X connect 16 0 5 0;
#X connect 17 0 5 0;
#X restore 426 362 pd sawJump;
#X obj 430 315 bng 15 250 50 0 empty empty empty 17 7 0 10 -262144
-1 -1;
#N canvas 0 23 723 300 sinShoot 0;
#X obj 90 175 sinShoot;
#X obj 143 41 bng 15 250 50 0 empty empty empty 17 7 0 10 -262144 -1
-1;
#X obj 133 69 f;
#X obj 192 72 + 1;
#X obj 133 92 mod 10;
#X obj 138 121 sel 0 1 2 3 4 5 6 7 8 9;
#X obj 224 32 r sinShoot;
#X obj 165 175 sinShoot;
#X obj 239 176 sinShoot;
#X obj 314 176 sinShoot;
#X obj 394 177 sinShoot;
#X obj 469 177 sinShoot;
#X obj 543 178 sinShoot;
#X obj 618 178 sinShoot;
#X obj -59 175 sinShoot;
#X obj 16 175 sinShoot;
#X obj 92 12 inlet;
#X obj 85 263 outlet~;
#X connect 0 0 17 0;
#X connect 1 0 2 0;
#X connect 2 0 4 0;
#X connect 3 0 2 1;
#X connect 4 0 3 0;
#X connect 4 0 5 0;
#X connect 5 0 14 0;
#X connect 5 1 15 0;
#X connect 5 2 0 0;
#X connect 5 3 7 0;
#X connect 5 4 8 0;
#X connect 5 5 9 0;
#X connect 5 6 10 0;
#X connect 5 7 11 0;
#X connect 5 8 12 0;
#X connect 5 9 13 0;
#X connect 6 0 2 0;
#X connect 7 0 17 0;
#X connect 8 0 17 0;
#X connect 9 0 17 0;
#X connect 10 0 17 0;
#X connect 11 0 17 0;
#X connect 12 0 17 0;
#X connect 13 0 17 0;
#X connect 14 0 17 0;
#X connect 15 0 17 0;
#X connect 16 0 2 0;
#X restore 130 327 pd sinShoot;
#N canvas 0 23 809 300 sawShoot 0;
#X obj 905 42 bng 15 250 50 0 empty empty empty 17 7 0 10 -262144 -1
-1;
#X obj 895 70 f;
#X obj 954 73 + 1;
#X obj 895 93 mod 10;
#X obj 900 122 sel 0 1 2 3 4 5 6 7 8 9;
#X obj 703 176 sawShoot;
#X obj 778 176 sawShoot;
#X obj 852 176 sawShoot;
#X obj 927 176 sawShoot;
#X obj 1001 177 sawShoot;
#X obj 1076 177 sawShoot;
#X obj 1156 178 sawShoot;
#X obj 1231 178 sawShoot;
#X obj 1305 179 sawShoot;
#X obj 1379 180 sawShoot;
#X obj 986 33 r sawShoot;
#X obj 850 24 inlet;
#X obj 892 263 outlet~;
#X connect 0 0 1 0;
#X connect 1 0 3 0;
#X connect 2 0 1 1;
#X connect 3 0 2 0;
#X connect 3 0 4 0;
#X connect 4 0 5 0;
#X connect 4 1 6 0;
#X connect 4 2 7 0;
#X connect 4 3 8 0;
#X connect 4 4 9 0;
#X connect 4 5 10 0;
#X connect 4 6 11 0;
#X connect 4 7 12 0;
#X connect 4 8 13 0;
#X connect 4 9 14 0;
#X connect 5 0 17 0;
#X connect 6 0 17 0;
#X connect 7 0 17 0;
#X connect 8 0 17 0;
#X connect 9 0 17 0;
#X connect 10 0 17 0;
#X connect 11 0 17 0;
#X connect 12 0 17 0;
#X connect 13 0 17 0;
#X connect 14 0 17 0;
#X connect 15 0 1 0;
#X connect 16 0 1 0;
#X restore 556 328 pd sawShoot;
#N canvas 0 23 907 300 triShoot 0;
#X obj 1688 54 bng 15 250 50 0 empty empty empty 17 7 0 10 -262144
-1 -1;
#X obj 1678 82 f;
#X obj 1737 85 + 1;
#X obj 1678 105 mod 10;
#X obj 1683 134 sel 0 1 2 3 4 5 6 7 8 9;
#X obj 1486 188 triShoot;
#X obj 1561 188 triShoot;
#X obj 1635 188 triShoot;
#X obj 1710 188 triShoot;
#X obj 1784 189 triShoot;
#X obj 1859 189 triShoot;
#X obj 1939 190 triShoot;
#X obj 2014 190 triShoot;
#X obj 2088 191 triShoot;
#X obj 2162 192 triShoot;
#X obj 1769 45 r triShoot;
#X obj 1789 239 outlet~;
#X obj 1620 28 inlet;
#X connect 0 0 1 0;
#X connect 1 0 3 0;
#X connect 2 0 1 1;
#X connect 3 0 2 0;
#X connect 3 0 4 0;
#X connect 4 0 5 0;
#X connect 4 1 6 0;
#X connect 4 2 7 0;
#X connect 4 3 8 0;
#X connect 4 4 9 0;
#X connect 4 5 10 0;
#X connect 4 6 11 0;
#X connect 4 7 12 0;
#X connect 4 8 13 0;
#X connect 4 9 14 0;
#X connect 5 0 16 0;
#X connect 6 0 16 0;
#X connect 7 0 16 0;
#X connect 8 0 16 0;
#X connect 9 0 16 0;
#X connect 10 0 16 0;
#X connect 11 0 16 0;
#X connect 12 0 16 0;
#X connect 13 0 16 0;
#X connect 14 0 16 0;
#X connect 15 0 1 0;
#X connect 17 0 1 0;
#X restore 763 367 pd triShoot;
#X obj 564 285 bng 15 250 50 0 empty empty empty 17 7 0 10 -262144
-1 -1;
#X obj 159 286 bng 15 250 50 0 empty empty empty 17 7 0 10 -262144
-1 -1;
#X obj 762 332 bng 15 250 50 0 empty empty empty 17 7 0 10 -262144
-1 -1;
#X obj 761 399 *~ 0.3;
#X obj 559 395 *~ 0.5;
#X obj 466 386 *~ 0.3;
#X obj 264 383 *~ 0.5;
#X obj 637 200 jump;
#X obj 143 41 bng 15 250 50 0 empty empty empty 17 7 0 10 -262144 -1
-1;
#X obj 133 69 f;
#X obj 192 72 + 1;
#X obj 133 92 mod 10;
#X obj 133 125 sel 0 1 2 3 4 5 6 7 8 9;
#X obj 103 22 inlet;
#X obj 224 33 r sawJump;
#X obj 784 -26 bng 15 250 50 0 empty empty empty 17 7 0 10 -262144
-1 -1;
#X obj 690 195 jump;
#X obj 739 206 jump;
#X obj 792 201 jump;
#X obj 839 208 jump;
#X obj 892 203 jump;
#X obj 941 214 jump;
#X obj 994 209 jump;
#X obj 1036 212 jump;
#X obj 1089 207 jump;
#X obj 705 116 route 0 1 2 3 4 5 6 7 8 9;
#X obj 704 18 f;
#X obj 763 21 + 1;
#X obj 704 41 mod 10;
#X obj 806 75 pack;
#X obj 864 -42 t b f;
#X msg 811 -82 0;
#X msg 854 -81 1;
#X msg 899 -81 2;
#X msg 957 -75 3;
#X msg 994 -69 4;
#X msg 993 -37 5;
#X connect 0 0 2 1;
#X connect 0 0 2 0;
#X connect 0 0 3 0;
#X connect 1 0 0 0;
#X connect 3 0 4 0;
#X connect 5 0 6 0;
#X connect 6 0 18 0;
#X connect 7 0 17 0;
#X connect 8 0 7 0;
#X connect 9 0 2 0;
#X connect 9 0 2 1;
#X connect 10 0 16 0;
#X connect 11 0 15 0;
#X connect 12 0 10 0;
#X connect 13 0 9 0;
#X connect 14 0 11 0;
#X connect 15 0 2 1;
#X connect 15 0 2 0;
#X connect 16 0 2 1;
#X connect 16 0 2 0;
#X connect 17 0 2 0;
#X connect 17 0 2 1;
#X connect 17 0 3 0;
#X connect 18 0 3 0;
#X connect 18 0 2 0;
#X connect 18 0 2 1;
#X connect 19 0 2 1;
#X connect 19 0 2 0;
#X connect 20 0 21 0;
#X connect 21 0 23 0;
#X connect 22 0 21 1;
#X connect 23 0 22 0;
#X connect 23 0 24 0;
#X connect 25 0 21 0;
#X connect 26 0 21 0;
#X connect 27 0 38 0;
#X connect 28 0 2 1;
#X connect 28 0 2 0;
#X connect 29 0 2 1;
#X connect 29 0 2 0;
#X connect 30 0 2 1;
#X connect 30 0 2 0;
#X connect 31 0 2 1;
#X connect 31 0 2 0;
#X connect 32 0 2 1;
#X connect 32 0 2 0;
#X connect 33 0 2 1;
#X connect 33 0 2 0;
#X connect 34 0 2 1;
#X connect 34 0 2 0;
#X connect 35 0 2 1;
#X connect 35 0 2 0;
#X connect 36 0 2 1;
#X connect 36 0 2 0;
#X connect 37 0 19 0;
#X connect 37 1 28 0;
#X connect 37 2 29 0;
#X connect 37 3 30 0;
#X connect 37 4 31 0;
#X connect 37 5 32 0;
#X connect 37 6 33 0;
#X connect 37 7 34 0;
#X connect 37 8 35 0;
#X connect 37 9 36 0;
#X connect 38 0 40 0;
#X connect 39 0 38 1;
#X connect 40 0 39 0;
#X connect 40 0 41 0;
#X connect 41 0 37 0;
#X connect 42 0 38 0;
#X connect 42 1 41 1;
#X connect 43 0 42 0;
#X connect 44 0 42 0;
#X connect 45 0 42 0;
#X connect 46 0 42 0;
#X connect 47 0 42 0;
#X connect 48 0 42 0;
