#N canvas 0 23 1146 723 12;
#X obj 676 506 clip~ -1 1;
#X obj 591 320 *~;
#X obj 678 629 *~ 0.2;
#X obj 591 298 vline~;
#X obj 676 483 *~ 10;
#X obj 747 207 vcf~ 3;
#X obj 680 459 lop~ 200;
#X obj 752 584 lop~ 2000;
#X obj 492 570 vcf~ 1;
#X obj 509 532 +~ 1000;
#X obj 512 441 vline~;
#X obj 860 78 vline~;
#X obj 684 403 *~;
#X obj 850 330 vline~;
#X obj 793 122 *~ 500;
#X msg 592 263 1 1 5 \, 0 700 100;
#X obj 673 669 outlet~;
#X obj 846 361 *~;
#X obj 848 393 *~;
#X obj 492 30 inlet;
#X obj 301 447 random 1000;
#X obj 301 470 + 1000;
#X obj 510 504 *~;
#X obj 929 372 random 500;
#X obj 929 395 + 500;
#X obj 839 430 *~;
#X obj 912 151 + 150;
#X obj 912 128 random 150;
#X obj 794 145 +~;
#X obj 489 69 t b b b b b b b;
#X msg 850 308 1 3 5 \, 0.5 500 10;
#X msg 860 45 0 \, 1 1 10 \, 0.1 300 50;
#X msg 517 403 1 3 5 \, 0.9 200 10;
#X obj 673 10 inlet~;
#X connect 0 0 7 0;
#X connect 0 0 8 0;
#X connect 1 0 12 0;
#X connect 2 0 16 0;
#X connect 3 0 1 0;
#X connect 4 0 0 0;
#X connect 5 0 1 1;
#X connect 6 0 4 0;
#X connect 7 0 2 0;
#X connect 8 1 2 0;
#X connect 9 0 8 1;
#X connect 10 0 22 0;
#X connect 11 0 14 0;
#X connect 12 0 6 0;
#X connect 13 0 17 0;
#X connect 13 0 17 1;
#X connect 14 0 28 0;
#X connect 15 0 3 0;
#X connect 17 0 18 0;
#X connect 17 0 18 1;
#X connect 18 0 25 0;
#X connect 19 0 29 0;
#X connect 20 0 21 0;
#X connect 21 0 22 1;
#X connect 22 0 9 0;
#X connect 23 0 24 0;
#X connect 24 0 25 1;
#X connect 25 0 12 1;
#X connect 26 0 28 1;
#X connect 27 0 26 0;
#X connect 28 0 5 1;
#X connect 29 0 32 0;
#X connect 29 1 15 0;
#X connect 29 2 30 0;
#X connect 29 3 31 0;
#X connect 29 4 23 0;
#X connect 29 5 27 0;
#X connect 29 6 20 0;
#X connect 30 0 13 0;
#X connect 31 0 11 0;
#X connect 32 0 10 0;
#X connect 33 0 5 0;
