#N canvas 356 96 887 648 12;
#X obj 431 440 adsr~, f 14;
#X obj 371 536 *~;
#X obj 446 -39 bng 15 250 50 0 empty empty empty 17 7 0 10 -262144
-1 -1;
#X obj 680 144 t b b;
#X obj 205 92 t b b b;
#X obj 168 242 pack;
#X msg 351 326 1;
#X msg 392 352 0;
#X obj 450 372 random 10;
#X obj 450 395 + 5;
#X obj 537 373 random 10;
#X obj 652 370 random 50;
#X obj 652 393 + 50;
#X obj 743 398 + 30;
#X obj 743 375 random 70;
#X obj 507 327 t b b b b;
#X obj 401 11 t b b b b b b;
#X msg 689 219 1;
#X msg 787 240 0;
#X obj 433 253 loadbang;
#X msg 433 276 1;
#X obj 368 564 *~ 0.1;
#X obj 679 116 del;
#X obj 356 602 hip~ 5;
#X obj 549 405 + 3;
#X obj 238 203 -;
#X obj 237 231 -;
#X obj 236 260 -;
#X obj 706 285 switch~;
#X obj 679 169 del 100;
#X obj 716 53 +;
#X obj 140 -44 inlet;
#X obj 364 627 outlet~;
#X obj 54 138 random 100;
#X obj 54 163 + 200;
#X obj 145 141 random 400;
#X obj 145 164 + 400;
#X obj 238 140 random 200;
#X obj 61 504 osc~;
#X obj 61 527 *~ 1e+08;
#X obj 61 550 clip~ -1 1;
#X obj 301 423 line;
#X obj 238 164 + 200;
#X connect 0 0 1 1;
#X connect 1 0 21 0;
#X connect 2 0 16 0;
#X connect 3 0 29 0;
#X connect 3 1 7 0;
#X connect 4 0 35 0;
#X connect 4 1 37 0;
#X connect 4 2 33 0;
#X connect 5 0 41 0;
#X connect 6 0 0 0;
#X connect 7 0 0 0;
#X connect 8 0 9 0;
#X connect 9 0 0 2;
#X connect 9 0 25 1;
#X connect 10 0 24 0;
#X connect 11 0 12 0;
#X connect 12 0 0 4;
#X connect 13 0 0 5;
#X connect 13 0 27 1;
#X connect 13 0 30 1;
#X connect 14 0 13 0;
#X connect 15 0 14 0;
#X connect 15 1 11 0;
#X connect 15 2 10 0;
#X connect 15 3 8 0;
#X connect 16 0 6 0;
#X connect 16 1 22 0;
#X connect 16 3 4 0;
#X connect 16 4 15 0;
#X connect 16 5 17 0;
#X connect 17 0 28 0;
#X connect 18 0 28 0;
#X connect 19 0 20 0;
#X connect 20 0 0 1;
#X connect 21 0 23 0;
#X connect 22 0 3 0;
#X connect 23 0 32 0;
#X connect 24 0 0 3;
#X connect 24 0 26 1;
#X connect 25 0 26 0;
#X connect 26 0 27 0;
#X connect 27 0 22 1;
#X connect 29 0 18 0;
#X connect 30 0 29 1;
#X connect 31 0 16 0;
#X connect 33 0 34 0;
#X connect 34 0 41 0;
#X connect 35 0 36 0;
#X connect 36 0 5 0;
#X connect 37 0 42 0;
#X connect 38 0 39 0;
#X connect 39 0 40 0;
#X connect 40 0 1 0;
#X connect 41 0 38 0;
#X connect 42 0 5 1;
#X connect 42 0 25 0;
#X connect 42 0 30 0;
