#N canvas 67 26 1126 721 10;
#N canvas 0 23 450 300 about 0;
#X text 98 108 Guns by Piotr Goj \, kretopi@gmail.com;
#X restore 90 512 pd about;
#X obj 278 602 dac~;
#X obj 368 379 pack;
#X obj 287 533 *~;
#X floatatom 369 310 5 0 0 0 - - -;
#X floatatom 396 340 5 0 0 0 - - -;
#X obj 352 358 f;
#X msg 715 246 300;
#X msg 675 294 100;
#X msg 738 225 500;
#X msg 477 248 70;
#X msg 494 222 100;
#X msg 529 171 200;
#X msg 505 198 150;
#X msg 549 151 300;
#X msg 697 268 150;
#X obj 447 459 phasor~;
#X obj 448 490 *~ 2;
#X obj 448 527 -~ 1;
#X obj 445 552 *~;
#X obj 284 477 osc~;
#X obj 596 151 random 20;
#X obj 596 173 - 10;
#X obj 503 301 +;
#X obj 468 103 random 5;
#X obj 468 125 route 0 1 2 3 4;
#X obj 474 77 t b b;
#X obj 671 157 t b b;
#X obj 671 179 random 4;
#X obj 671 201 route 0 1 2 3;
#X obj 776 178 random 40;
#X obj 776 200 - 20;
#X obj 742 337 +;
#X obj 353 419 line~;
#X obj 207 331 t b b;
#X msg 203 367 8000;
#X obj 203 389 +;
#X obj 262 371 random 5000;
#X obj 262 393 - 3000;
#X obj 335 127 del;
#X obj 308 186 line~;
#X msg 326 160 0 1;
#X msg 262 157 1 1;
#X obj 254 70 bng 15 250 50 0 empty empty empty 17 7 0 10 -262144 -1
-1;
#X obj 284 503 *~;
#X obj 254 91 t b b b b b b;
#X obj 534 451 r \$0-type;
#X obj 534 508 t b b;
#X msg 534 529 1;
#X msg 570 530 0;
#X floatatom 635 460 5 0 0 0 - - -;
#X obj 604 508 t b b;
#X msg 604 529 1;
#X msg 640 530 0;
#X obj 534 472 sel 0 1;
#X obj 261 51 r \$0- fire;
#X connect 2 0 33 0;
#X connect 3 0 1 0;
#X connect 3 0 1 1;
#X connect 4 0 6 1;
#X connect 5 0 2 1;
#X connect 6 0 2 0;
#X connect 7 0 32 0;
#X connect 8 0 32 0;
#X connect 9 0 32 0;
#X connect 10 0 23 0;
#X connect 11 0 23 0;
#X connect 12 0 23 0;
#X connect 13 0 23 0;
#X connect 14 0 23 0;
#X connect 15 0 32 0;
#X connect 16 0 17 0;
#X connect 17 0 18 0;
#X connect 18 0 19 0;
#X connect 19 0 3 0;
#X connect 20 0 44 0;
#X connect 21 0 22 0;
#X connect 22 0 23 1;
#X connect 23 0 4 0;
#X connect 24 0 25 0;
#X connect 25 0 10 0;
#X connect 25 1 11 0;
#X connect 25 2 13 0;
#X connect 25 3 12 0;
#X connect 25 4 14 0;
#X connect 26 0 24 0;
#X connect 26 1 21 0;
#X connect 27 0 28 0;
#X connect 27 1 30 0;
#X connect 28 0 29 0;
#X connect 29 0 8 0;
#X connect 29 1 15 0;
#X connect 29 2 7 0;
#X connect 29 3 9 0;
#X connect 30 0 31 0;
#X connect 31 0 32 1;
#X connect 32 0 5 0;
#X connect 32 0 39 1;
#X connect 33 0 20 0;
#X connect 33 0 16 0;
#X connect 34 0 35 0;
#X connect 34 1 37 0;
#X connect 35 0 36 0;
#X connect 36 0 33 0;
#X connect 37 0 38 0;
#X connect 38 0 36 1;
#X connect 39 0 41 0;
#X connect 40 0 3 1;
#X connect 41 0 40 0;
#X connect 42 0 40 0;
#X connect 43 0 45 0;
#X connect 44 0 3 0;
#X connect 45 0 6 0;
#X connect 45 1 39 0;
#X connect 45 2 42 0;
#X connect 45 3 26 0;
#X connect 45 4 27 0;
#X connect 45 5 34 0;
#X connect 46 0 54 0;
#X connect 47 0 48 0;
#X connect 47 1 49 0;
#X connect 48 0 19 1;
#X connect 49 0 44 1;
#X connect 50 0 54 0;
#X connect 51 0 52 0;
#X connect 51 1 53 0;
#X connect 52 0 44 1;
#X connect 53 0 19 1;
#X connect 54 0 47 0;
#X connect 54 0 45 0;
#X connect 54 1 51 0;
#X connect 54 1 45 0;
#X connect 55 0 45 0;
