#N canvas 160 83 661 516 12;
#X obj 254 54 bng 15 250 50 0 empty empty empty 17 7 0 10 -262144 -1
-1;
#X obj 174 98 f;
#X obj 233 101 + 1;
#X obj 174 121 mod 10;
#X obj 276 155 pack;
#X obj 334 38 t b f;
#X msg 281 -2 0;
#X msg 324 -1 1;
#X msg 369 -1 2;
#X msg 427 5 3;
#X msg 464 11 4;
#X msg 463 43 5;
#X msg 514 89 6;
#X msg 528 135 7;
#X obj 469 431 clone buttons 10;
#X obj 469 454 dac~;
#X floatatom 471 352 5 0 0 0 - - -;
#X msg 584 362 1;
#X obj 177 13 r Button;
#X connect 0 0 1 0;
#X connect 1 0 3 0;
#X connect 2 0 1 1;
#X connect 3 0 2 0;
#X connect 3 0 4 0;
#X connect 4 0 14 0;
#X connect 5 0 1 0;
#X connect 5 1 4 1;
#X connect 6 0 5 0;
#X connect 7 0 5 0;
#X connect 8 0 5 0;
#X connect 9 0 5 0;
#X connect 10 0 5 0;
#X connect 11 0 5 0;
#X connect 12 0 5 0;
#X connect 13 0 5 0;
#X connect 14 0 15 0;
#X connect 14 0 15 1;
#X connect 16 0 14 0;
#X connect 17 0 14 0;
#X connect 18 0 5 0;
