#N canvas 150 23 944 752 12;
#X obj 552 611 osc~;
#X obj 630 614 *~;
#X obj 617 699 dac~;
#X obj 422 5 t b b b b;
#X obj 306 161 + 50;
#X obj 616 651 hip~ 5;
#X obj 414 624 phasor~;
#X obj 414 647 *~ 2;
#X obj 414 670 -~ 1;
#X obj 118 544 f;
#X obj 170 545 f;
#X obj 139 432 t f f;
#X obj 93 330 t b b b;
#X obj 141 287 sel 0 1;
#X obj 159 331 t b b b;
#X obj 164 505 del 100;
#X obj 88 455 del 100;
#X obj 139 379 random 400;
#X obj 139 402 + 200;
#X obj 284 402 * 3;
#X obj 284 426 / 2;
#X obj 315 403 * 4;
#X obj 315 426 / 3;
#X obj 319 319 pack;
#X obj 319 248 t b f;
#X obj 306 137 random 100;
#X obj 358 401 * 5;
#X obj 389 400 * 6;
#X obj 358 424 / 4;
#X obj 389 424 / 5;
#X obj 419 398 * 7;
#X obj 450 397 * 8;
#X obj 419 421 / 6;
#X obj 450 421 / 7;
#X obj 311 362 route 0 1 2 3 4 5 6 7;
#X obj 319 289 random 6;
#N canvas 0 23 609 516 adsr 1;
#X obj 573 -3 inlet;
#X obj 487 449 outlet~;
#X obj 515 373 adsr~, f 13;
#X msg 465 179 1;
#X msg 513 181 0;
#X obj 550 134 del 250;
#X obj 656 85 random 20;
#X obj 653 189 random 10;
#X obj 782 275 random 20;
#X obj 782 298 + 60;
#X obj 818 382 + 5;
#X obj 561 71 * 2;
#X obj 599 55 t b b b b;
#X obj 589 105 +;
#X obj 818 359 random 20;
#X msg 532 293 0.2;
#X obj 656 108 + 5;
#X obj 536 257 loadbang;
#X obj 393 25 inlet;
#X obj 573 20 t b b b;
#X obj 706 459 outlet;
#X obj 736 414 +;
#X obj 571 181 t b b;
#X obj 577 219 del;
#X connect 0 0 19 0;
#X connect 2 0 1 0;
#X connect 3 0 2 0;
#X connect 4 0 2 0;
#X connect 5 0 22 0;
#X connect 6 0 16 0;
#X connect 7 0 2 3;
#X connect 8 0 9 0;
#X connect 9 0 2 4;
#X connect 10 0 2 5;
#X connect 10 0 13 1;
#X connect 10 0 21 1;
#X connect 11 0 13 0;
#X connect 12 0 14 0;
#X connect 12 1 8 0;
#X connect 12 2 7 0;
#X connect 12 3 6 0;
#X connect 13 0 5 1;
#X connect 13 0 21 0;
#X connect 14 0 10 0;
#X connect 15 0 2 1;
#X connect 16 0 2 2;
#X connect 17 0 15 0;
#X connect 18 0 11 0;
#X connect 19 0 5 0;
#X connect 19 1 3 0;
#X connect 19 2 12 0;
#X connect 21 0 23 1;
#X connect 22 0 23 0;
#X connect 22 1 4 0;
#X connect 23 0 20 0;
#X restore 576 354 pd adsr;
#X msg 58 99 0;
#X msg 141 95 1;
#X obj 89 215 f;
#X floatatom 26 286 5 0 0 0 - - -;
#X obj 14 371 bng 15 250 50 0 empty empty empty 17 7 0 10 -262144 -1
-1;
#X obj 41 381 bng 15 250 50 0 empty empty empty 17 7 0 10 -262144 -1
-1;
#X obj 258 113 t b b;
#X obj 156 49 r downSinButton;
#X obj 51 47 r upSinButton;
#N canvas 0 23 586 446 osc 1;
#X obj 87 48 inlet;
#X obj 113 134 osc~;
#X obj 113 157 outlet~;
#X msg 269 101 1;
#X msg 367 122 0;
#X obj 286 167 switch~;
#X obj 256 22 inlet;
#X obj 471 13 inlet;
#X connect 0 0 1 0;
#X connect 1 0 2 0;
#X connect 3 0 5 0;
#X connect 4 0 5 0;
#X connect 6 0 3 0;
#X connect 7 0 4 0;
#X restore 454 530 pd osc;
#X obj 169 133 t b f b;
#X connect 1 0 5 0;
#X connect 3 1 36 1;
#X connect 3 3 43 0;
#X connect 4 0 15 1;
#X connect 4 0 16 1;
#X connect 4 0 36 0;
#X connect 5 0 2 1;
#X connect 5 0 2 0;
#X connect 6 0 7 0;
#X connect 7 0 8 0;
#X connect 9 0 0 0;
#X connect 9 0 46 0;
#X connect 10 0 0 0;
#X connect 10 0 46 0;
#X connect 11 0 9 1;
#X connect 11 1 24 0;
#X connect 12 0 10 0;
#X connect 12 1 16 0;
#X connect 12 2 17 0;
#X connect 13 0 12 0;
#X connect 13 0 41 0;
#X connect 13 1 14 0;
#X connect 13 1 42 0;
#X connect 14 0 15 0;
#X connect 14 1 9 0;
#X connect 14 2 17 0;
#X connect 15 0 10 0;
#X connect 16 0 9 0;
#X connect 17 0 18 0;
#X connect 18 0 11 0;
#X connect 19 0 20 0;
#X connect 20 0 10 1;
#X connect 21 0 22 0;
#X connect 22 0 10 1;
#X connect 23 0 34 0;
#X connect 24 0 35 0;
#X connect 24 1 23 1;
#X connect 25 0 4 0;
#X connect 26 0 28 0;
#X connect 27 0 29 0;
#X connect 28 0 10 1;
#X connect 29 0 10 1;
#X connect 30 0 32 0;
#X connect 31 0 33 0;
#X connect 32 0 10 1;
#X connect 33 0 10 1;
#X connect 34 0 21 0;
#X connect 34 1 19 0;
#X connect 34 2 26 0;
#X connect 34 3 27 0;
#X connect 34 4 30 0;
#X connect 34 5 31 0;
#X connect 35 0 23 0;
#X connect 36 0 1 1;
#X connect 36 1 46 2;
#X connect 37 0 47 0;
#X connect 38 0 47 0;
#X connect 39 0 13 0;
#X connect 39 0 40 0;
#X connect 43 0 39 0;
#X connect 43 1 25 0;
#X connect 44 0 38 0;
#X connect 45 0 37 0;
#X connect 46 0 1 0;
#X connect 47 0 3 0;
#X connect 47 1 39 1;
#X connect 47 2 46 1;
