#N canvas 227 198 450 300 12;
#X obj 204 37 osc~ 200;
#X obj 187 169 dac~;
#X obj 267 103 *~;
#X obj 307 25 r onOff;
#X obj 314 55 tgl 15 0 empty empty empty 17 7 0 10 -262144 -1 -1 0
1;
#X obj 318 111 lop~ 1;
#X obj 325 83 sig~;
#X connect 0 0 2 0;
#X connect 2 0 1 1;
#X connect 2 0 1 0;
#X connect 3 0 4 0;
#X connect 4 0 6 0;
#X connect 5 0 2 1;
#X connect 6 0 5 0;
