#N canvas 86 269 1103 628 12;
#X obj 515 373 adsr~, f 13;
#X msg 465 179 1;
#X msg 513 181 0;
#X obj 656 85 random 20;
#X obj 653 189 random 10;
#X obj 782 275 random 20;
#X obj 782 298 + 60;
#X obj 818 382 + 5;
#X obj 599 55 t b b b b;
#X obj 818 359 random 20;
#X msg 532 293 0.2;
#X obj 656 108 + 5;
#X obj 536 257 loadbang;
#X obj 446 15 inlet;
#X obj 446 38 t b b;
#X obj 510 18 inlet;
#X obj 500 429 outlet~;
#X obj 782 448 outlet;
#X connect 0 0 16 0;
#X connect 1 0 0 0;
#X connect 2 0 0 0;
#X connect 3 0 11 0;
#X connect 4 0 0 3;
#X connect 5 0 6 0;
#X connect 6 0 0 4;
#X connect 7 0 0 5;
#X connect 7 0 17 0;
#X connect 8 0 3 0;
#X connect 8 1 5 0;
#X connect 8 2 4 0;
#X connect 8 3 9 0;
#X connect 9 0 7 0;
#X connect 10 0 0 1;
#X connect 11 0 0 2;
#X connect 12 0 10 0;
#X connect 13 0 14 0;
#X connect 14 0 1 0;
#X connect 14 1 8 0;
#X connect 15 0 2 0;
